<?xml version="1.0" encoding="utf-8"?>
<!-- Generator: Adobe Illustrator 16.0.0, SVG Export Plug-In . SVG Version: 6.00 Build 0)  -->
<!DOCTYPE svg PUBLIC "-//W3C//DTD SVG 1.1//EN" "http://www.w3.org/Graphics/SVG/1.1/DTD/svg11.dtd">
<svg version="1.1" id="Layer_1" xmlns="http://www.w3.org/2000/svg" xmlns:xlink="http://www.w3.org/1999/xlink" x="0px" y="0px"
	 width="30px" height="24.3px" viewBox="0 0 30 24.3" enable-background="new 0 0 30 24.3" xml:space="preserve">
<path fill="#2A8A9A" d="M30,2.798c-1.102,0.5-2.302,0.801-3.5,1c1.3-0.8,2.198-2,2.698-3.399c-1.198,0.7-2.5,1.2-3.898,1.5
	c-1.102-1.199-2.7-1.9-4.5-1.9c-3.399,0-6.102,2.801-6.102,6.102c0,0.5,0.102,1,0.2,1.398c-5.1-0.299-9.6-2.699-12.7-6.398
	c-0.5,0.898-0.8,2-0.8,3.1c0,2.101,1.102,4,2.7,5.101c-1,0-2-0.3-2.8-0.8v0.102c0,3,2.1,5.5,4.898,6c-0.5,0.101-1.1,0.198-1.6,0.198
	c-0.4,0-0.8,0-1.2-0.102c0.8,2.4,3.102,4.201,5.7,4.301c-2.1,1.603-4.8,2.603-7.6,2.603c-0.5,0-1,0-1.5-0.103
	c2.698,1.699,6,2.801,9.398,2.801c11.299,0,17.5-9.398,17.5-17.5c0-0.3,0-0.5,0-0.8C28.199,5.098,29.199,3.999,30,2.798z"/>
</svg>
