<?xml version="1.0" encoding="utf-8"?>
<!-- Generator: Adobe Illustrator 16.0.0, SVG Export Plug-In . SVG Version: 6.00 Build 0)  -->
<!DOCTYPE svg PUBLIC "-//W3C//DTD SVG 1.1//EN" "http://www.w3.org/Graphics/SVG/1.1/DTD/svg11.dtd">
<svg version="1.1" id="Layer_1" xmlns="http://www.w3.org/2000/svg" xmlns:xlink="http://www.w3.org/1999/xlink" x="0px" y="0px"
	 width="1132px" height="251px" viewBox="0 0 1132 251" enable-background="new 0 0 1132 251" xml:space="preserve">
<g>
	<defs>
		<rect id="SVGID_1_" x="-422" y="-414" width="1980" height="1080"/>
	</defs>
	<clipPath id="SVGID_2_">
		<use xlink:href="#SVGID_1_"  overflow="visible"/>
	</clipPath>
	<path clip-path="url(#SVGID_2_)" d="M1105.573,2.607l-0.488-0.025L27.373,2.536l-0.458,0.032
		C12.648,3.924,1.471,18.496,1.471,35.743v183.167c0,17.814,11.759,32.311,26.212,32.311l1077.162,0.021
		c14.471,0,26.241-14.496,26.241-32.312V35.832C1131.086,18.586,1119.907,3.994,1105.573,2.607 M415.993,239.974H27.683
		c-9.727,0-17.64-10.088-17.64-22.489V34.315c0-12.098,7.78-22.338,17.726-23.356l388.224,0.017V239.974z M608.713,208.533
		l-1.396,0.546c-4.038,1.58-8.806,2.381-14.173,2.381c-6.42,0-11.094-0.958-14.282-2.927c-3.071-1.897-5.64-4.417-7.624-7.488
		l-69-109.703l-0.02,106.996c0,3.718-1.153,6.844-3.429,9.317c-2.357,2.561-6.326,3.805-12.14,3.805
		c-2.491,0-4.999-0.084-7.455-0.253c-2.554-0.176-4.502-0.439-5.957-0.805l-1.662-0.416V47.365l1.287-0.585
		c1.988-0.905,4.516-1.589,7.515-2.031c2.909-0.427,5.597-0.643,7.991-0.643c7.066,0,12.088,0.954,15.351,2.915
		c3.16,1.896,5.94,4.669,8.256,8.239l66.539,105.064l0.052-103.095c0-3.541,1.144-6.614,3.399-9.162
		c2.352-2.664,6.252-3.961,11.923-3.961c2.368,0,4.819,0.129,7.284,0.383c2.505,0.259,4.428,0.561,5.874,0.919l1.667,0.415V208.533z
		 M732.983,206.204c-2.4,2.502-5.435,3.77-9.015,3.77h-76.032c-6.921,0-11.352-1.471-13.541-4.499
		c-2.005-2.76-3.021-6.318-3.021-10.576V59.676c0-4.253,1.016-7.812,3.021-10.576c2.192-3.028,6.622-4.499,13.541-4.499h84.926
		l0.418,1.663c0.357,1.43,0.661,3.31,0.924,5.748c0.254,2.399,0.383,4.811,0.383,7.169c0,5.481-1.244,9.29-3.807,11.647
		c-2.477,2.275-5.517,3.427-9.039,3.427h-58.234v38.702h63.643l0.857,7.009c0.257,2.146,0.386,4.44,0.386,6.826
		c0,5.298-1.152,8.977-3.523,11.246c-2.312,2.212-5.199,3.335-8.579,3.335h-52.783v38.946h71.815l0.857,7.015
		c0.254,2.133,0.387,4.429,0.387,6.823C736.566,199.755,735.393,203.695,732.983,206.204 M920.841,197.569
		c-1.321,6.02-4.099,9.957-8.259,11.734c-3.747,1.594-8.557,2.404-14.305,2.404c-2.537,0-5.523-0.128-8.874-0.377
		c-3.498-0.264-6.537-0.846-9.037-1.73l-1.118-0.396c0,0-28.04-121.096-28.195-121.825c-1.004,4.735-26.041,110.267-26.041,110.267
		c-1.478,5.757-4.055,9.605-7.667,11.466c-3.346,1.723-7.876,2.597-13.467,2.597c-2.676,0-5.858-0.171-9.457-0.505
		c-3.712-0.35-6.838-0.974-9.297-1.853l-1.151-0.412L749.731,48.253l1.607-0.73c1.907-0.866,4.141-1.656,6.638-2.346
		c2.585-0.711,5.573-1.071,8.883-1.071c4.324,0,8.018,0.845,10.98,2.511c3.214,1.809,5.325,5.14,6.28,9.903
		c0,0,19.744,108.569,20.556,113.616c0.896-5.011,26.316-112.712,26.316-112.712c1.135-4.926,3.821-8.467,7.979-10.494
		c3.841-1.875,8.708-2.824,14.468-2.824c5.631,0,10.842,0.698,15.485,2.072l1.219,0.36c0,0,27.579,119.334,28.648,124.829
		c0.121-0.73,20.445-115.539,20.445-115.539c0.771-4.449,2.72-7.591,5.789-9.332c2.808-1.587,6.337-2.391,10.492-2.391
		c2.966,0,5.728,0.313,8.209,0.932c2.397,0.602,4.49,1.257,6.227,1.948l1.71,0.68L920.841,197.569z M1080.785,181.85
		c-2.525,6.257-6.526,11.714-11.895,16.219c-5.321,4.465-12.076,7.979-20.084,10.446c-7.943,2.447-17.578,3.689-28.632,3.689
		c-8.168,0-17.167-0.845-26.75-2.511c-9.555-1.657-19.455-4.185-29.422-7.51l-1.501-0.5v-1.583c0-0.524-0.032-0.987-0.095-1.384
		c-0.101-0.578-0.154-1.278-0.154-2.083c0-5.814,1.102-10.646,3.272-14.359c2.396-4.091,6.285-6.165,11.556-6.165
		c2.288,0,5.03,0.352,8.153,1.041l10.029,2.23c3.654,0.814,7.768,1.554,12.223,2.2c4.404,0.642,9.34,0.968,14.671,0.968
		c10.804,0,18.534-1.907,22.973-5.671c4.396-3.723,6.531-8.279,6.531-13.927c0-2.763-0.5-5.133-1.49-7.038
		c-0.989-1.909-2.437-3.569-4.301-4.937c-1.973-1.439-4.424-2.721-7.281-3.805c-3.02-1.138-6.509-2.286-10.36-3.411l-20.528-5.688
		c-16.558-4.562-28.312-11.062-34.931-19.317c-6.65-8.289-10.021-17.918-10.021-28.618c0-5.339,0.955-10.867,2.842-16.431
		c1.919-5.675,5.274-10.844,9.967-15.365c4.652-4.479,10.904-8.221,18.577-11.123c7.647-2.887,17.324-4.351,28.764-4.351
		c7.682,0,16.015,0.76,24.769,2.26c8.742,1.499,17.985,3.947,27.475,7.276l1.47,0.514v5.025c0,5.991-1.064,10.79-3.166,14.262
		c-2.319,3.826-6.074,5.765-11.168,5.765c-2.313,0-4.854-0.31-7.544-0.921c-2.53-0.569-5.386-1.14-8.57-1.713
		c-3.115-0.559-6.795-1.138-10.939-1.722c-4.018-0.56-8.582-0.845-13.563-0.845c-5.548,0-10.178,0.514-13.764,1.528
		c-3.507,0.992-6.334,2.32-8.408,3.948c-2.013,1.582-3.46,3.344-4.301,5.233c-0.861,1.933-1.296,3.926-1.296,5.918
		c0,4.766,1.535,8.243,4.698,10.63c3.481,2.631,9.938,5.258,19.198,7.807l21.809,6.199c29.805,7.834,44.938,23.714,44.938,47.186
		C1084.534,168.721,1083.273,175.663,1080.785,181.85"/>
	<path clip-path="url(#SVGID_2_)" d="M74.675,140.791l24.881,4.776c9.087,1.73,13.811,3.805,13.811,8.725
		c0,3.813-3.568,7.79-15.263,7.79c-10.652,0-24.976-1.594-34.039-1.594c-8.755,0-18.087,3.954-18.087,21.216
		c0,2.098,0.386,4.752,0.87,6.875c13.044,1.49,40.553,3.902,59.554,1.88c26.182-2.849,39.108-17.283,39.108-37.034
		c0-17.046-10.464-30.931-34.893-35.418l-23.747-4.413c-7.616-1.353-12.392-3.107-12.392-7.426c0-4.075,5.016-7.427,17.144-7.427
		c11.934,0,22.347,1.253,29.073,1.253c8.754,0,17.821-3.736,17.821-20.925c0-2.342-0.24-4.435-0.724-6.68
		c-12.974-1.589-36.628-3.955-56.08-1.856c-25.703,2.844-38.77,18.303-38.77,36.795C42.942,122.494,53.983,136.812,74.675,140.791"
		/>
	<path clip-path="url(#SVGID_2_)" d="M188.163,174.622V29.302c-2.461-0.502-5.114-0.795-7.744-0.795
		c-20.878,0-24.492,11.141-24.492,21.792v140.5c2.266,0.337,4.677,0.527,7.422,0.527
		C183.986,191.326,188.163,185.226,188.163,174.622"/>
	<path clip-path="url(#SVGID_2_)" d="M248.027,191.567c8.287,0,15.164-1.884,18.346-3.424l-38.506-58.058l27.295-28.935
		l44.775,70.286l-27.273,57.525c2.706,1.401,8.269,3.085,15.286,3.284c11.987,0.231,18.521-4.368,23.387-15.098l64.422-143.673
		c-2.667-1.445-8.532-3.019-13.379-3.136c-8.264-0.142-19.385,1.566-26.493,18.496l-20.857,49.226l-40.895-66.638
		c-2.627-0.795-9.086-1.977-13.811-1.977c-14.422,0-22.498,5.329-30.865,14.444l-39.782,43.496l31.975,50.345
		C227.58,186.892,235.391,191.567,248.027,191.567"/>
</g>
</svg>
